<svg width="32" height="32" viewBox="0 0 32 32" fill="none" xmlns="http://www.w3.org/2000/svg">
<path d="M7.42456 29V3.66998H16.8766C18.5992 3.66998 20.1179 3.98732 21.4326 4.62198C22.7699 5.23398 23.8126 6.14065 24.5606 7.34198C25.3086 8.52065 25.6826 9.95998 25.6826 11.66C25.6826 13.3373 25.2972 14.7767 24.5266 15.978C23.7786 17.1567 22.7472 18.0633 21.4326 18.698C20.1179 19.3327 18.5992 19.65 16.8766 19.65H12.0486V29H7.42456ZM12.0486 15.57H16.9446C17.7832 15.57 18.5086 15.4113 19.1206 15.094C19.7326 14.754 20.2086 14.2893 20.5486 13.7C20.8886 13.1107 21.0586 12.4307 21.0586 11.66C21.0586 10.8667 20.8886 10.1867 20.5486 9.61998C20.2086 9.03065 19.7326 8.57732 19.1206 8.25998C18.5086 7.91998 17.7832 7.74999 16.9446 7.74999H12.0486V15.57Z" fill="#FF164D"/>
</svg>
